<svg xmlns="http://www.w3.org/2000/svg" width="38.861" height="38.861" viewBox="0 0 38.861 38.861">
  <path id="design" d="M22.43,3a19.43,19.43,0,0,0,0,38.861,3.24,3.24,0,0,0,2.4-5.419,3.226,3.226,0,0,1,2.418-5.376h3.821A10.8,10.8,0,0,0,41.861,20.271C41.861,10.729,33.16,3,22.43,3ZM10.556,22.43a3.238,3.238,0,1,1,3.238-3.238A3.234,3.234,0,0,1,10.556,22.43Zm6.477-8.636a3.238,3.238,0,1,1,3.238-3.238A3.234,3.234,0,0,1,17.033,13.795Zm10.795,0a3.238,3.238,0,1,1,3.238-3.238A3.234,3.234,0,0,1,27.828,13.795ZM34.3,22.43a3.238,3.238,0,1,1,3.238-3.238A3.234,3.234,0,0,1,34.3,22.43Z" transform="translate(-3.001 -3)" fill="#bebebe"/>
</svg>
