<svg xmlns="http://www.w3.org/2000/svg" width="60.246" height="58.758" viewBox="0 0 60.246 58.758">
  <path id="github-black" d="M30.123.4A30.126,30.126,0,0,0,20.6,59.1c1.506.279,2.06-.653,2.06-1.45,0-.717-.028-3.091-.041-5.609-8.382,1.822-10.15-3.555-10.15-3.555-1.371-3.481-3.344-4.407-3.344-4.407-2.734-1.87.207-1.832.207-1.832a6.332,6.332,0,0,1,4.616,3.1c2.687,4.605,7.047,3.274,8.766,2.5a6.411,6.411,0,0,1,1.913-4.029C17.937,43.068,10.9,40.483,10.9,28.942a11.657,11.657,0,0,1,3.1-8.086,10.822,10.822,0,0,1,.292-7.971s2.53-.81,8.286,3.088a28.542,28.542,0,0,1,15.086,0c5.75-3.9,8.274-3.088,8.274-3.088a10.81,10.81,0,0,1,.3,7.971,11.634,11.634,0,0,1,3.1,8.086c0,11.569-7.047,14.116-13.755,14.864,1.081.936,2.043,2.768,2.043,5.578,0,4.031-.036,7.275-.036,8.267,0,.8.542,1.741,2.069,1.446a30.127,30.127,0,0,0-9.54-58.7Z" transform="translate(0 -0.395)" fill="#2d2c2c"/>
</svg>
