<svg xmlns="http://www.w3.org/2000/svg" width="62.793" height="48.142" viewBox="0 0 62.793 48.142">
  <g id="github-logo" transform="translate(0 -10.5)">
    <path id="Github__x28_alt_x29_" d="M45.845,10.5a10.914,10.914,0,0,1,.556,7.187c3.227,2.755,4.336,9.453,2.778,14.927,4.6.351,10.078-.169,13.614,1.243-3.306-.425-7.821-1.259-12.084-.968-.808.055-2-.031-1.946,1.106,4.936.387,9.84.809,13.893,2.074a102.345,102.345,0,0,0-13.893-1.8c-2.063,4.071-6.215,6.072-11.947,6.493.616,1.341,1.8,1.851,2.084,4.008.43,3.222-.673,7.941.415,10.088.522,1.029,1.372,1.056,1.946,1.936-1.4,1.661-4.884-.187-5.28-1.936-.679-3,1.034-7.642-.832-9.674.131,3.269-.773,7.859.139,10.779.359,1.148,1.4,1.591,1.111,2.628-6.525.662-3.8-8.445-4.864-13.821-.984.07-.552,1.474-.555,2.074C30.952,52.1,32.054,59.3,26.4,58.594c-.165-1.1.759-1.478,1.111-2.486,1.032-2.953-.193-7.355.28-10.92-2.159,1.628.227,7.312-1.111,10.226-.771,1.677-3.255,2.407-5.14,1.658.246-1.249,1.535-1.047,2.082-2.211.765-1.621.006-3.959.278-6.357-4,.8-7.1-.116-8.615-2.626-.679-1.127-.847-2.456-1.668-3.454s-2.121-1.134-2.5-2.486c4.95-1.192,5.14,5.095,9.586,5.249a10.811,10.811,0,0,0,3.334-.689,5.88,5.88,0,0,1,2.223-3.6c-5.532-.757-10.1-2.48-12.225-6.631A75.821,75.821,0,0,0,.138,36.206C4.007,34.8,8.778,34.3,13.893,34.132c-.3-1.811-2.944-1.313-4.584-1.243A75.961,75.961,0,0,0,0,33.856c3.512-1.252,8.441-1.1,13.2-1.106-1.455-4.563-.951-11.811,2.223-14.511-.9-2.267-.62-5.974.555-7.74,3.544.159,5.693,1.7,7.919,3.179a27.6,27.6,0,0,1,9.447-.968c1.591.088,3.245.8,4.444.69,1.176-.11,2.471-1.43,3.613-1.933A11.12,11.12,0,0,1,45.845,10.5Z" fill="#bebebe"/>
  </g>
</svg>
