<?xml version="1.0" encoding="utf-8"?>
<!-- Generator: Adobe Illustrator 23.0.1, SVG Export Plug-In . SVG Version: 6.00 Build 0)  -->
<svg version="1.1" id="Layer_1" xmlns="http://www.w3.org/2000/svg" xmlns:xlink="http://www.w3.org/1999/xlink" x="0px" y="0px"
	 viewBox="0 0 54.1 52.1" style="enable-background:new 0 0 54.1 52.1;" xml:space="preserve">
<style type="text/css">
	.st0{fill:#B21A3B;}
</style>
<path id="jd-logo" class="st0" d="M6.5,52.1c-2.5,0-4.3,0-6.5-0.2V41.2c1.5,0.1,3.2,0.1,4.7,0.1c1.9,0.1,3.9-0.4,5.5-1.4
	c1.5-1.2,2.3-3,2.3-5.7V1.1l12.9,12v26.4c-0.5,2.2-1.4,4.3-2.7,6.1c-1.2,1.6-2.6,2.9-4.3,3.9C15.3,51.2,11.4,52.1,6.5,52.1z
	 M33.9,51.9h-9.9c4.6-1.8,8-5.8,9.1-10.7c2.9,0,4.8-0.5,5.9-1.7c1.1-1.1,1.6-2.9,1.6-5.5V17.9c0-2.6-0.6-4.4-1.8-5.6
	c-1.4-1.2-3.2-1.8-5.1-1.6h-6.5L15.7,0h18.2c7,0,12.2,1.7,15.6,5.1c3.1,3.1,4.6,7.6,4.6,13.3v15.1c0,6-1.7,10.6-5,13.7
	C45.7,50.3,40.5,51.9,33.9,51.9L33.9,51.9z"/>
</svg>
