<svg xmlns="http://www.w3.org/2000/svg" width="54.09" height="52.096" viewBox="0 0 54.09 52.096">
  <path id="jd-logo" d="M20323.594,69.535c-2.494,0-4.295,0-6.518-.2V58.676c1.482.1,3.186.1,4.688.1a8.938,8.938,0,0,0,5.482-1.4c1.521-1.15,2.27-3.007,2.289-5.678V18.553l12.889,12.02V56.923a16.588,16.588,0,0,1-2.664,6.14,13.728,13.728,0,0,1-4.336,3.872C20332.416,68.66,20328.436,69.535,20323.594,69.535Zm27.342-.2h-9.918a14.981,14.981,0,0,0,9.1-10.66c2.947-.018,4.77-.538,5.9-1.687,1.107-1.123,1.613-2.879,1.6-5.526V35.343c0-2.589-.6-4.428-1.844-5.622a6.986,6.986,0,0,0-5.068-1.627h-6.52l-11.426-10.654h18.221c6.953,0,12.2,1.724,15.586,5.124,3.076,3.085,4.625,7.555,4.6,13.287V50.921c0,5.992-1.693,10.6-5.033,13.684C20362.738,67.744,20357.625,69.336,20350.936,69.336Z" transform="translate(-20317.076 -17.439)" fill="#fff"/>
</svg>
