<svg xmlns="http://www.w3.org/2000/svg" width="54.391" height="38.419" viewBox="0 0 54.391 38.419">
  <g id="js" transform="translate(-1477.525 -1842.695)">
    <path id="Path_6516" data-name="Path 6516" d="M314.989,190.188c-1.364-3.957-6.959-3.957-8.051-.682s2.593,5.185,8.324,7.1,9.279,6.959,8.6,11.462-2.593,10.37-13.918,10.37c-7.078,0-11.012-4.424-12.967-7.742l6.417-3.856s2.183,4.639,6.277,4.639,5.731-1.364,5.731-4.5c0-3.821-13.236-5.185-15.283-11.735s.682-15.828,10.234-15.146a14.808,14.808,0,0,1,11.007,5.5Z" transform="translate(1207.974 1662.64)" fill="#bebebe"/>
    <path id="Path_6517" data-name="Path 6517" d="M169.463,183.8V210c0,3.138-2.729,4.776-5.458,4.23s-3.957-3.821-3.957-3.821l-6.277,4.23s1.364,6.277,9.961,6.823,13.509-4.639,13.509-9.006V183.8Z" transform="translate(1323.753 1659.609)" fill="#bebebe"/>
  </g>
</svg>
