<svg xmlns="http://www.w3.org/2000/svg" width="59.098" height="56.471" viewBox="0 0 59.098 56.471">
  <g id="linkedin-logo" transform="translate(0 -9.558)">
    <path id="LinkedIn" d="M59.1,44.18V66.029H46.431V45.644c0-5.121-1.832-8.616-6.417-8.616a6.931,6.931,0,0,0-6.5,4.634,8.667,8.667,0,0,0-.42,3.088V66.029H20.424s.171-34.526,0-38.1h12.67v5.4c-.026.04-.059.084-.083.123h.083v-.123a12.58,12.58,0,0,1,11.418-6.3C52.848,27.03,59.1,32.477,59.1,44.18ZM7.17,9.558C2.835,9.558,0,12.4,0,16.14c0,3.657,2.753,6.587,7,6.587h.085c4.419,0,7.167-2.929,7.167-6.587C14.17,12.4,11.5,9.558,7.17,9.558ZM.753,66.029H13.419v-38.1H.753Z" fill="#2d2c2c"/>
  </g>
</svg>
