<?xml version="1.0" encoding="utf-8"?>
<!-- Generator: Adobe Illustrator 23.0.2, SVG Export Plug-In . SVG Version: 6.00 Build 0)  -->
<svg version="1.1" id="Warstwa_1" xmlns="http://www.w3.org/2000/svg" xmlns:xlink="http://www.w3.org/1999/xlink" x="0px" y="0px"
	 viewBox="0 0 531.4 1076.1" style="enable-background:new 0 0 531.4 1076.1;" xml:space="preserve">
<style type="text/css">
	.st0{fill:#FFFFFF;}
	.st1{fill:#383838;}
	.st2{opacity:5.400000e-02;enable-background:new    ;}
	.st3{fill:url(#Ellipse_1096_1_);}
	.st4{fill:#F0F0F0;}
	.st5{opacity:0.15;fill:#035A81;enable-background:new    ;}
</style>
<path id="Rectangle_2145" class="st0" d="M-0.3,464.7L-0.3,464.7c-4.9,0-8.9-4-8.9-8.9l0,0V374c0-4.9,4-8.9,8.9-8.9c0,0,0,0,0,0l0,0
	l0,0V464.7L-0.3,464.7z"/>
<path id="Rectangle_2146" class="st0" d="M-0.3,342.1L-0.3,342.1c-4.9,0-8.9-4-8.9-8.9l0,0v-81.8c0-4.9,4-8.9,8.9-8.9c0,0,0,0,0,0
	l0,0l0,0V342.1L-0.3,342.1z"/>
<path id="Rectangle_2147" class="st0" d="M-0.3,199L-0.3,199c-4.9,0-8.9-4-8.9-8.9l0,0v-35.8c0-4.9,4-8.9,8.9-8.9l0,0l0,0V199
	L-0.3,199z"/>
<path class="st1" d="M530.7,646c0-189.1,0-378.2,0-567.2c0-2.5,0.1-5-0.2-7.4c-1.6-18.4-9.3-35.8-22-49.3
	C495.2,7.4,478.7-0.2,458.5,0c-31,0.3-62.1,0.1-93.1,0.1c-98.6,0-197.1,0-295.7,0c-3.3,0-6.5,0.2-9.8,0.7
	C47.8,2.7,36.5,8.2,27.6,16.7C9.7,33.3,0.1,53.8,0,78.3c0,153.4,0,306.8,0,460.2h0c0,79.7,0,159.4,0,239.2C0,851.1,0,924.6,0,998
	c-0.1,4.5,0.3,8.9,1,13.3c3.4,19.3,13,35.2,27.7,47.9c13,11.2,28,17.2,45.4,16.9c22.1-0.3,44.2-0.1,66.3-0.1
	c105.9,0,211.8,0,317.7,0c9.1,0.1,18.2-1.9,26.5-5.7c26.7-12.2,46.2-42.6,46.1-71.7C530.8,881.2,530.7,763.6,530.7,646z
	 M497.1,1014.8c-7,17.4-19.7,27.8-38.2,31.2c-3.2,0.5-6.5,0.7-9.8,0.6H91.4c-4.4,0-8.7,0.1-13.1-0.1c-23.2-0.6-42.7-17.6-46.5-40.5
	c-0.5-3.3-0.7-6.7-0.6-10.1c0-102.6,0-205.2,0-307.9V538.1h0c0-140.4,0-280.8,0-421.2c0-13.8-0.2-27.6,0.1-41.3
	C31.8,54.1,48,35,69,30.5c3.8-0.8,7.6-1.2,11.5-1.2c15.4,0,30.7,0,46.1,0c2.3,0,4.3,0.4,5.9,2.2c1.1,1.3,1.7,3,1.6,4.7
	c0,3.3,0.2,6.5,0.8,9.8c2.6,12.1,13.2,20.8,25.6,20.9c18.9,0.2,37.9,0.1,56.8,0.1c50,0,99.9,0,149.9,0c2.6,0.1,5.2-0.1,7.7-0.5
	c12-2.4,20.8-12.7,21.4-24.9c0.1-1.9,0.1-3.8,0.2-5.6c0.3-4,2.7-6.4,6.8-6.4c16.5,0,32.9-0.3,49.4,0.1c21.7,0.5,39.5,14.5,45.6,35.4
	c1.1,3.9,1.7,8,1.7,12c0,33.1,0,66.2,0,99.3c0,272.8,0,545.7,0,818.6C500,1001.6,499.7,1008.3,497.1,1014.8z"/>
<path id="Rectangle_2148" class="st0" d="M531.4,242.5L531.4,242.5c4.9,0,8.9,4,8.9,8.9l0,0v123c0,4.9-4,8.9-8.9,8.9c0,0,0,0,0,0
	l0,0l0,0V242.5L531.4,242.5z"/>
<path id="Rectangle_2101" class="st2" d="M234,35.7H293c2.8,0,5,2.3,5,5l0,0c0,2.8-2.3,5-5,5H234c-2.8,0-5-2.3-5-5l0,0
	C229,38,231.3,35.7,234,35.7z"/>
<linearGradient id="Ellipse_1096_1_" gradientUnits="userSpaceOnUse" x1="-40.2987" y1="959.8764" x2="-40.2987" y2="958.8764" gradientTransform="matrix(20.158 0 0 -20.158 1136.4099 19379.875)">
	<stop  offset="0" style="stop-color:#000000;stop-opacity:0.161"/>
	<stop  offset="1" style="stop-color:#FFFFFF;stop-opacity:0"/>
</linearGradient>
<ellipse id="Ellipse_1096" class="st3" cx="324.1" cy="40.8" rx="10.1" ry="10.1"/>
<ellipse id="Ellipse_1098" class="st4" cx="203.2" cy="40.8" rx="6.7" ry="6.7"/>
<ellipse id="Ellipse_1097" class="st5" cx="324.1" cy="40.8" rx="4.3" ry="4.3"/>
</svg>
