<svg xmlns="http://www.w3.org/2000/svg" width="46.684" height="32.954" viewBox="0 0 46.684 32.954">
  <g id="ps" transform="translate(-0.001)">
    <g id="Group_124" data-name="Group 124" transform="translate(0)">
      <path id="Path_6475" data-name="Path 6475" d="M154.639,181.6H140.862v32.5h6.316V203.2h7.689c5.632,0,10.115-4.9,10.115-10.8C164.982,187.4,160.944,181.6,154.639,181.6Zm-.137,16.065h-7.323V187.138h7.048c2.681,0,4.348,2.517,4.348,5.263C158.575,195.6,156.717,197.665,154.5,197.665Z" transform="translate(-140.862 -181.6)" fill="#bebebe"/>
    </g>
    <g id="Group_126" data-name="Group 126" transform="translate(26.133 8.056)">
      <path id="Path_6476" data-name="Path 6476" d="M289.158,233.909c-.885-.213-4.714-.837-4.714-3.021,0-1.75,1.436-2.7,3.662-2.7a12.413,12.413,0,0,1,6.957,2.655l2.472-3.707a13.358,13.358,0,0,0-9.383-3.3c-5.013,0-9.428,2.843-9.428,7.918,0,5.271,7,6.255,8.559,6.682,1.861.519,5.263,1.187,5.263,3.25,0,1.68-1.611,2.655-3.936,2.655-3.587,0-6.957-2.12-8.422-3.158l-2.288,3.845a17.274,17.274,0,0,0,10.847,3.707c2.99,0,9.7-.934,9.7-7.6C298.449,235.5,290.806,234.337,289.158,233.909Z" transform="translate(-277.899 -223.84)" fill="#bebebe"/>
    </g>
  </g>
</svg>
