<svg xmlns="http://www.w3.org/2000/svg" width="60.975" height="54.299" viewBox="0 0 60.975 54.299">
  <g id="React-icon" transform="translate(-175.699 -78)">
    <path id="Path_6522" data-name="Path 6522" d="M236.674,105.156c0-4.039-5.058-7.867-12.814-10.241,1.79-7.9.994-14.193-2.511-16.207a5.449,5.449,0,0,0-2.784-.7v2.772a2.878,2.878,0,0,1,1.417.323c1.69.969,2.424,4.661,1.852,9.408-.137,1.168-.36,2.4-.634,3.654a60.229,60.229,0,0,0-7.892-1.355,60.625,60.625,0,0,0-5.17-6.214c4.052-3.766,7.855-5.829,10.44-5.829V78h0c-3.418,0-7.892,2.436-12.416,6.662-4.524-4.2-9-6.612-12.416-6.612v2.772c2.573,0,6.388,2.051,10.44,5.792a58.7,58.7,0,0,0-5.133,6.2,58.038,58.038,0,0,0-7.9,1.367c-.286-1.243-.5-2.448-.646-3.6-.584-4.748.137-8.439,1.815-9.421a2.766,2.766,0,0,1,1.429-.323V78.062h0a5.542,5.542,0,0,0-2.809.7c-3.492,2.013-4.275,8.29-2.473,16.169-7.73,2.386-12.764,6.2-12.764,10.229s5.058,7.867,12.814,10.241c-1.79,7.9-.994,14.193,2.511,16.207a5.463,5.463,0,0,0,2.8.7c3.418,0,7.892-2.436,12.416-6.662,4.524,4.2,9,6.612,12.416,6.612a5.542,5.542,0,0,0,2.809-.7c3.492-2.013,4.275-8.29,2.473-16.169C231.64,113.011,236.674,109.183,236.674,105.156Zm-16.182-8.29c-.46,1.6-1.032,3.256-1.678,4.909-.51-.994-1.044-1.989-1.628-2.983s-1.181-1.964-1.79-2.908C217.161,96.145,218.864,96.469,220.492,96.866ZM214.8,110.1c-.969,1.678-1.964,3.269-3,4.748-1.852.162-3.729.249-5.618.249s-3.753-.087-5.593-.236q-1.547-2.218-3.008-4.723Q196.17,107.7,195,105.193c.771-1.665,1.641-3.331,2.573-4.959.969-1.678,1.964-3.269,3-4.748,1.852-.162,3.729-.249,5.618-.249s3.753.087,5.593.236q1.547,2.218,3.008,4.723,1.417,2.442,2.585,4.946C216.589,106.809,215.732,108.474,214.8,110.1Zm4.014-1.616c.671,1.665,1.243,3.331,1.715,4.946-1.628.4-3.343.733-5.12.994.609-.957,1.218-1.939,1.79-2.946S218.3,109.481,218.814,108.487Zm-12.6,13.261a51.238,51.238,0,0,1-3.455-3.977c1.119.05,2.262.087,3.418.087s2.324-.025,3.455-.087A48.51,48.51,0,0,1,206.212,121.748Zm-9.247-7.32c-1.765-.261-3.467-.584-5.1-.982.46-1.6,1.032-3.256,1.678-4.909.51.994,1.044,1.989,1.628,2.983S196.356,113.483,196.965,114.427Zm9.185-25.863a51.236,51.236,0,0,1,3.455,3.977c-1.119-.05-2.262-.087-3.418-.087s-2.324.025-3.455.087A48.508,48.508,0,0,1,206.15,88.564Zm-9.2,7.32c-.609.957-1.218,1.939-1.79,2.946s-1.106,1.989-1.616,2.983c-.671-1.665-1.243-3.331-1.715-4.946C193.46,96.481,195.175,96.145,196.953,95.884ZM185.7,111.445c-4.4-1.877-7.246-4.337-7.246-6.289s2.846-4.424,7.246-6.289c1.069-.46,2.237-.87,3.443-1.255a59.691,59.691,0,0,0,2.8,7.569,58.851,58.851,0,0,0-2.759,7.532C187.954,112.327,186.786,111.9,185.7,111.445Zm6.686,17.76c-1.69-.969-2.424-4.661-1.852-9.408.137-1.168.36-2.4.634-3.654a60.231,60.231,0,0,0,7.892,1.355,60.625,60.625,0,0,0,5.17,6.214c-4.052,3.766-7.855,5.829-10.44,5.829A2.966,2.966,0,0,1,192.391,129.2Zm29.48-9.47c.584,4.748-.137,8.439-1.815,9.421a2.766,2.766,0,0,1-1.429.323c-2.573,0-6.388-2.051-10.44-5.792a58.7,58.7,0,0,0,5.133-6.2,58.039,58.039,0,0,0,7.9-1.367A34.792,34.792,0,0,1,221.871,119.734Zm4.785-8.29c-1.069.46-2.237.87-3.443,1.255a59.692,59.692,0,0,0-2.8-7.569,58.848,58.848,0,0,0,2.759-7.532c1.23.385,2.4.808,3.492,1.268,4.4,1.877,7.246,4.337,7.246,6.289S231.056,109.58,226.656,111.445Z" fill="#bebebe"/>
    <path id="Path_6523" data-name="Path 6523" d="M320.8,78.4Z" transform="translate(-127.066 -0.35)" fill="#bebebe"/>
    <circle id="Ellipse_22" data-name="Ellipse 22" cx="5.68" cy="5.68" r="5.68" transform="translate(200.495 99.476)" fill="#bebebe"/>
    <path id="Path_6524" data-name="Path 6524" d="M520.5,78.1Z" transform="translate(-301.947 -0.088)" fill="#bebebe"/>
  </g>
</svg>
