<svg xmlns="http://www.w3.org/2000/svg" width="65.371" height="54.14" viewBox="0 0 65.371 54.14">
  <path id="Path_6495" data-name="Path 6495" d="M80.666,77.089c-1.042.394-1,.4-1.551-.6A8.717,8.717,0,0,1,78,72.4a9.473,9.473,0,0,1,.749-3.567c.345-.91-.1-1.231-.892-1.314a8.59,8.59,0,0,0-1.74.006c-1.5.153-1.642.282-2.039,1.733a14.78,14.78,0,0,1-.815,2.547c-.965,2.013-2.062,3.951-3.186,5.875a5.037,5.037,0,0,1-.654,1.015,7.618,7.618,0,0,1-1.191-3.982,10.1,10.1,0,0,1,.829-3.976.626.626,0,0,0-.346-.886,1.5,1.5,0,0,0-.532-.174,8.1,8.1,0,0,0-2.851.2.991.991,0,0,0-.79.825,12.587,12.587,0,0,1-.851,2.686q-1.6,3.589-3.189,7.184c-.926,2.08-1.837,4.165-2.934,6.163-.077.142-.142.387-.335.338s-.128-.29-.136-.456a11.827,11.827,0,0,1,.532-3.426c.433-1.78.907-3.551,1.367-5.325a.909.909,0,0,0-.512-1.1,1.558,1.558,0,0,0-1.869.123,11.447,11.447,0,0,0,.1-1.994,2.4,2.4,0,0,0-1.869-2.551,3.847,3.847,0,0,0-2.37.44,11.967,11.967,0,0,0-4.313,3.571,1.562,1.562,0,0,1-.475.445q-3.309,1.8-6.611,3.617a.4.4,0,0,1-.571-.09,30.747,30.747,0,0,0-3.668-3.163,40.7,40.7,0,0,1-5.157-4.387,8.48,8.48,0,0,1-2.021-3.356,7.694,7.694,0,0,1,.864-5.98,17.78,17.78,0,0,1,4.962-5.468,47.82,47.82,0,0,1,10.178-5.94,28.735,28.735,0,0,1,12.728-2.745,11.21,11.21,0,0,1,5.073,1.244,3.764,3.764,0,0,1,2.067,2.805,6.861,6.861,0,0,1-.8,4.272,16.55,16.55,0,0,1-6.761,6.757,22.474,22.474,0,0,1-7.624,2.712,14.075,14.075,0,0,1-4.5.178,6.944,6.944,0,0,1-4.5-2.227.421.421,0,0,0-.54-.159c-.237.115-.219.325-.2.527a1.826,1.826,0,0,0,.1.411,4.843,4.843,0,0,0,1.6,2.055A9.648,9.648,0,0,0,48.487,69.8a25.563,25.563,0,0,0,6.478-.745A19.6,19.6,0,0,0,66.751,61.5a12.914,12.914,0,0,0,2.774-8.132A7.114,7.114,0,0,0,67.4,48.338a11.9,11.9,0,0,0-5.987-2.975,22.267,22.267,0,0,0-7.531-.328,31.076,31.076,0,0,0-6.46,1.438,57.637,57.637,0,0,0-9.279,4.118,39.8,39.8,0,0,0-8.419,6.055A20.042,20.042,0,0,0,24.512,64.1a6.838,6.838,0,0,0-.482,3.916,11.049,11.049,0,0,0,2.4,4.639,31.066,31.066,0,0,0,6,5.265c1.746,1.254,3.574,2.4,5.251,3.743.475.381.473.381-.087.675-.654.341-1.314.669-1.956,1.032a28.6,28.6,0,0,0-7.137,5.258,8.081,8.081,0,0,0-2.007,3.662A34.47,34.47,0,0,0,32.367,99a11.811,11.811,0,0,0,10.61-10.843,12.331,12.331,0,0,0-.5-4.878c-.086-.281-.4-.56-.279-.806.116-.227.467-.342.725-.491,1.041-.6,2.084-1.2,3.156-1.816a.92.92,0,0,1-.083.51,14.8,14.8,0,0,0-.575,6.868,9.563,9.563,0,0,0,1.694,4.039,2.6,2.6,0,0,0,3.919-.034,18.7,18.7,0,0,0,1.917-3.5c.309-.662.592-1.335.886-2a22.343,22.343,0,0,0-.022,2.373,4.615,4.615,0,0,0,.554,2.215,1.614,1.614,0,0,0,2.233.62,4.957,4.957,0,0,0,1.966-2.046,95.217,95.217,0,0,0,5.449-10.952c.331-.8.67-1.606,1.045-2.5.057.293.1.473.13.652a17.1,17.1,0,0,0,1.849,5.111.724.724,0,0,1-.072.91c-.819,1.115-1.717,2.164-2.6,3.224A27.75,27.75,0,0,0,62.2,88.379a1.208,1.208,0,0,0,.7,1.989,4.011,4.011,0,0,0,.889.076,9.362,9.362,0,0,0,4.562-1.311,5.268,5.268,0,0,0,2.97-4.923,7.791,7.791,0,0,0-.715-2.954.5.5,0,0,1,.041-.557,54.66,54.66,0,0,0,3.543-5.886,5.121,5.121,0,0,1,.628-1.1c.041.142.073.23.091.321a15.916,15.916,0,0,0,1.655,4.83c.236.411.118.62-.208.895a12.876,12.876,0,0,0-2.808,3.335A6.286,6.286,0,0,0,72.58,86.3a1.714,1.714,0,0,0,2.25,1.747A10.011,10.011,0,0,0,78.448,86.4c2.377-1.74,3.074-3.576,2.33-6.139-.292-1.008-.286-.992.725-1.3a14.719,14.719,0,0,1,6.711-.328q.383.063.757.144.2-1.2.309-2.432A14.3,14.3,0,0,0,80.666,77.089ZM33.932,95.132a4.79,4.79,0,0,1-1.989.271A1.531,1.531,0,0,1,30.5,93.836a5.634,5.634,0,0,1,.7-2.886,11.8,11.8,0,0,1,3.628-3.881,41.68,41.68,0,0,1,4.349-2.879c.453-.269.46-.266.564.274a7.99,7.99,0,0,1,.21,2.017A9.321,9.321,0,0,1,33.932,95.132ZM54.518,76.088a23.281,23.281,0,0,1-1.313,4.606c-.755,2.045-1.489,4.1-2.439,6.066a4.767,4.767,0,0,1-.8,1.272c-.332.349-.627.309-.857-.118a6.067,6.067,0,0,1-.466-2.433,14.018,14.018,0,0,1,3.021-8.618,3.779,3.779,0,0,1,2.07-1.48C54.336,75.229,54.612,75.471,54.518,76.088Zm13.071,10A6.3,6.3,0,0,1,64.9,88.567c-.121.06-.276.167-.386.025s.063-.222.139-.306c1.123-1.227,2.233-2.464,3.233-3.8.015-.021.053-.024.139-.06A3.309,3.309,0,0,1,67.59,86.086Zm7.757-.048c-.167.079-.36.226-.523.1-.179-.139-.108-.384-.053-.572a10.033,10.033,0,0,1,1.073-2.442,9.031,9.031,0,0,1,1.435-1.731c.219-.21.317-.185.391.118a4.115,4.115,0,0,1,.09.935A3.779,3.779,0,0,1,75.347,86.038Z" transform="translate(-23.908 -44.86)" fill="#bebebe"/>
</svg>
