<svg xmlns="http://www.w3.org/2000/svg" width="57.236" height="57.361" viewBox="0 0 57.236 57.361">
  <g id="wordpress-logo-of-a-letter-in-a-circle" transform="translate(-0.098)">
    <path id="WordPress__x28_alt_x29_" d="M3.331,14.725A28.49,28.49,0,0,1,28.716,0,29.007,29.007,0,0,1,47.4,7.343a6.636,6.636,0,0,0-4.572.936,6.434,6.434,0,0,0-.112,11.109c2.986,1.867,4.049,6.54,3.949,9.394s-6.942,15.987-6.942,15.987L33.064,21.886s-.23-1.605-.23-2.068a2.779,2.779,0,0,1,.553-1.707c.249-.272.627-.842,1.075-.842H37.62V14.725H20.449v2.544h.532c.562,0,1.112.756,1.643,1.3.627.647,1.416,3.083,2.372,5.61l2.5,8.225L22.112,44.837l-5.9-24.852s.174-1.7.531-1.992c.233-.2.59-.724,1-.724H17.9V14.725H3.331ZM6.7,19.044s-1.389-1.775-2.863-1.775h-1.5A28.979,28.979,0,0,0,.1,28.634,28.4,28.4,0,0,0,17.605,54.809ZM53.343,14.5a18.381,18.381,0,0,1-.63,9.153C49.947,32.61,43.1,48.727,40.445,54.866a28.387,28.387,0,0,0,16.889-25.9A28.1,28.1,0,0,0,53.343,14.5ZM29.294,38.689,21.977,56.561a28.848,28.848,0,0,0,13.707-.052Z" transform="translate(0)" fill="#bebebe"/>
  </g>
</svg>
