<svg xmlns="http://www.w3.org/2000/svg" width="56.021" height="33.869" viewBox="0 0 56.021 33.869">
  <g id="xd" transform="translate(0)">
    <g id="Group_103" data-name="Group 103" transform="translate(0 0.915)">
      <path id="Path_6467" data-name="Path 6467" d="M140.3,181.6h-6.82l-8.055,12.083-8.1-12.083h-6.865l11.58,16.477L110.827,214.1h6.865l7.735-11.625,7.689,11.625h6.82l-11.214-16.019Z" transform="translate(-110.461 -181.6)" fill="#bebebe"/>
    </g>
    <g id="Group_107" data-name="Group 107" transform="translate(29.658)">
      <path id="Path_6469" data-name="Path 6469" d="M290.924,203.163V176.8h-6.133v13.639a9.291,9.291,0,0,0-8.1-4.623c-5.687,0-10.71,4.943-10.71,12.4,0,6.58,4.356,12.449,11.4,12.449a9.586,9.586,0,0,0,8.33-4.623s-.4,4.485,4.027,4.485a13.945,13.945,0,0,0,2.609-.32v-5.218C291.824,204.964,290.924,203.8,290.924,203.163Zm-6.133-1.739a6.579,6.579,0,0,1-5.812,4.028c-4.066,0-6.637-3.6-6.637-7.094,0-3.18,2.094-7.323,6.27-7.323,3.737,0,5.934,4,6.179,4.669Z" transform="translate(-265.98 -176.8)" fill="#bebebe"/>
    </g>
  </g>
</svg>
